# xmcd CD database file
#
# Track frame offsets:
#	150
#	11345
#	28412
#	44758
#	63163
#	77782
#	96065
#	120530
#	137841
#	153839
#	173557
#	194759
#
# Disc length: 2821 seconds
#
# Revision: 0
# Processed by: cddbd v1.5.1PL0 Copyright (c) Steve Scherf et al.
# Submitted via: CD2WAV32(EN) R3.19
#
DISCID=9c0b030c
DTITLE=ASIAN KUNG-FU FU GENERATION - Solfa
DYEAR=1900
DGENRE=
TTITLE0=Shindoutou
TTITLE1=Rewrite
TTITLE2=Kimi no Machi made
TTITLE3=My World
TTITLE4=Yoru no Mukou
TTITLE5=Last Seen
TTITLE6=Siren
TTITLE7=Re:Re:
TTITLE8=24ji
TTITLE9=Mayonaka to Mahiru no Yume
TTITLE10=Kaigan Dohri
TTITLE11=Loop&Loop
EXTD=
EXTT0=
EXTT1=
EXTT2=
EXTT3=
EXTT4=
EXTT5=
EXTT6=
EXTT7=
EXTT8=
EXTT9=
EXTT10=
EXTT11=
PLAYORDER=
